<svg width="208" height="36" viewBox="0 0 208 36" fill="none" xmlns="http://www.w3.org/2000/svg">
<path d="M4.01052 11.6829H0.872122C0.390434 11.6829 0 12.0727 0 12.5538C0 13.0348 0.390434 13.4247 0.872122 13.4247H4.01045C4.49221 13.4247 4.88265 13.0348 4.88265 12.5538C4.88265 12.0727 4.49221 11.6829 4.01052 11.6829Z" fill="#3D68C5"/>
<path d="M35.128 11.6829H31.9896C31.5079 11.6829 31.1174 12.0727 31.1174 12.5538C31.1174 13.0348 31.5079 13.4247 31.9896 13.4247H35.128C35.6096 13.4247 36.0001 13.0348 36.0001 12.5538C36.0001 12.0727 35.6096 11.6829 35.128 11.6829Z" fill="#3D68C5"/>
<path d="M7.60357 22.9355C7.26299 22.5954 6.71082 22.5954 6.37016 22.9355L4.08741 25.215C3.74682 25.5551 3.74682 26.1065 4.08741 26.4467C4.25773 26.6168 4.48094 26.7018 4.70407 26.7018C4.92721 26.7018 5.15049 26.6168 5.32074 26.4467L7.60357 24.1672C7.94415 23.8271 7.94415 23.2757 7.60357 22.9355Z" fill="#3D68C5"/>
<path d="M30.316 0.255078C29.9754 -0.0850259 29.4233 -0.0850259 29.0826 0.255078L26.8624 2.47219C26.5218 2.81229 26.5218 3.36375 26.8624 3.70379C27.0328 3.87373 27.256 3.95881 27.4791 3.95881C27.7024 3.95881 27.9254 3.87373 28.0958 3.70372L30.3159 1.48668C30.6565 1.14658 30.6565 0.595111 30.316 0.255078Z" fill="#3D68C5"/>
<path d="M9.13646 2.47081L6.91743 0.254972C6.57685 -0.0849908 6.02461 -0.0849908 5.68403 0.254972C5.34344 0.595076 5.34344 1.14654 5.68403 1.48664L7.90306 3.70256C8.07338 3.87257 8.29659 3.95765 8.51973 3.95765C8.74286 3.95765 8.96614 3.87257 9.13639 3.70256C9.47698 3.36245 9.47698 2.81099 9.13646 2.47081Z" fill="#3D68C5"/>
<path d="M31.9124 25.2154L29.6381 22.944C29.2975 22.6039 28.7455 22.6039 28.4047 22.9441C28.0641 23.2842 28.0641 23.8357 28.4047 24.1757L30.6791 26.4469C30.8494 26.617 31.0726 26.702 31.2958 26.702C31.519 26.702 31.7421 26.6169 31.9124 26.4469C32.253 26.1069 32.253 25.5554 31.9124 25.2154Z" fill="#3D68C5"/>
<path d="M18 2.36499C11.9693 2.36499 7.06311 7.48975 7.06311 13.789C7.06311 16.7176 8.11359 19.8698 9.94528 22.4375C11.352 24.4094 12.0955 26.6035 12.0955 28.7825V34.2582C12.0955 35.2186 12.878 36 13.8398 36H22.1603C23.122 36 23.9045 35.2186 23.9045 34.2582V28.7825C23.9045 26.6035 24.648 24.4094 26.0546 22.4375C27.8863 19.8699 28.9369 16.7176 28.9369 13.789C28.9367 7.48975 24.0305 2.36499 18 2.36499ZM22.1601 34.2583H13.8396V33.1192H17.9999C18.4816 33.1192 18.8721 32.7293 18.8721 32.2483C18.8721 31.7673 18.4816 31.3774 17.9999 31.3774H13.8396V30.2383H22.1603L22.1613 34.2582C22.1613 34.2583 22.1609 34.2583 22.1601 34.2583ZM16.7769 18.01L15.6106 15.5218H20.3892L19.223 18.01C19.1771 18.1079 19.1499 18.2136 19.1426 18.3215L18.4663 28.4965H17.5336L16.8573 18.3215C16.8501 18.2136 16.8228 18.1079 16.7769 18.01ZM24.6339 21.427C23.0762 23.6106 22.2253 26.0489 22.1637 28.4965H20.2144L20.8722 18.6L22.5501 15.0201C22.6766 14.7503 22.6563 14.4347 22.4961 14.1834C22.3361 13.9322 22.0585 13.7799 21.7603 13.7799H14.2395C13.9412 13.7799 13.6637 13.9322 13.5036 14.1834C13.3436 14.4346 13.3232 14.7503 13.4496 15.02L15.1277 18.6L15.7854 28.4964H13.836C13.7744 26.0487 12.9236 23.6105 11.3658 21.4269C9.76362 19.181 8.80714 16.3256 8.80714 13.7889C8.80714 8.45008 12.931 4.10671 17.9998 4.10671C23.0686 4.10671 27.1924 8.45008 27.1924 13.7889C27.1925 16.3258 26.2361 19.1811 24.6339 21.427Z" fill="#3D68C5"/>
<path d="M109.122 25.9266C108.743 25.6991 108.355 25.4705 107.966 25.2463C108.058 24.468 108.058 23.6806 107.967 22.9038C108.357 22.6788 108.745 22.4503 109.122 22.2238C109.756 21.8427 110.02 21.0386 109.737 20.3533C109.737 20.3533 109.737 20.3533 109.736 20.3532L108.909 18.3551C108.625 17.6699 107.87 17.2881 107.151 17.467C106.725 17.5733 106.288 17.6863 105.854 17.8028C105.369 17.1889 104.812 16.6322 104.197 16.1467C104.314 15.712 104.427 15.2757 104.533 14.8487C104.712 14.1307 104.33 13.3753 103.645 13.0914L101.647 12.2638C100.962 11.9798 100.157 12.244 99.7763 12.8784C99.5492 13.2562 99.3205 13.6447 99.0961 14.0338C98.3179 13.9425 97.5307 13.9423 96.7535 14.0333C96.5284 13.643 96.2998 13.2547 96.0736 12.8784C95.6922 12.2441 94.8881 11.9799 94.203 12.2638L92.2048 13.0914C91.5198 13.3752 91.1379 14.1307 91.3168 14.8487C91.4234 15.2765 91.5363 15.7127 91.6526 16.1463C91.0388 16.6314 90.482 17.1883 89.9966 17.803C89.5609 17.6861 89.1246 17.5732 88.6984 17.467C87.9802 17.2879 87.2249 17.6701 86.9411 18.3551L86.1136 20.3532C85.8299 21.0384 86.0942 21.8426 86.7282 22.2237C87.1062 22.4508 87.4947 22.6794 87.8837 22.9039C87.7924 23.682 87.7922 24.4692 87.8833 25.2465C87.4939 25.4711 87.1056 25.6997 86.7281 25.9265C86.094 26.3077 85.8297 27.1118 86.1135 27.797L86.9412 29.7952C87.225 30.4802 87.9801 30.8622 88.6985 30.6832C89.1249 30.577 89.5611 30.4641 89.996 30.3474C90.4812 30.9613 91.038 31.5179 91.6528 32.0035C91.5361 32.4386 91.4231 32.875 91.3168 33.3015C91.1379 34.0195 91.5197 34.775 92.2048 35.0588L94.203 35.8865C94.3886 35.9633 94.5829 36 94.7752 36C95.2928 36 95.7957 35.7343 96.0739 35.2719C96.2992 34.897 96.5278 34.5086 96.7541 34.1166C97.5321 34.2078 98.3195 34.2079 99.0966 34.117C99.3201 34.5046 99.5487 34.8928 99.7765 35.272C100.158 35.9062 100.962 36.1704 101.647 35.8866L103.645 35.059C104.33 34.7752 104.712 34.0197 104.533 33.3017C104.428 32.8775 104.315 32.4413 104.198 32.0041C104.811 31.519 105.368 30.9622 105.854 30.3474C106.288 30.4639 106.724 30.5768 107.152 30.6833C107.87 30.8624 108.625 30.4805 108.909 29.7952L109.737 27.797C110.02 27.1118 109.756 26.3077 109.122 25.9266ZM107.453 29.0977C107.043 28.995 106.625 28.8862 106.209 28.7742C105.62 28.6158 104.998 28.8228 104.625 29.302C104.197 29.8526 103.701 30.3487 103.151 30.7767C102.672 31.1495 102.466 31.7707 102.624 32.3593C102.737 32.778 102.846 33.196 102.948 33.6036L101.111 34.3643C100.893 33.9998 100.674 33.6273 100.46 33.2558C100.156 32.7275 99.5702 32.4347 98.9682 32.5092C98.277 32.5951 97.5753 32.595 96.8832 32.5089C96.2796 32.4339 95.6945 32.7267 95.3903 33.2552C95.1739 33.6309 94.9551 34.0036 94.739 34.3642L92.9023 33.6034C93.005 33.1937 93.1137 32.7754 93.226 32.3588C93.3845 31.77 93.1773 31.1484 92.6981 30.7754C92.1476 30.3468 91.6515 29.8509 91.2235 29.3013C90.8508 28.8225 90.2295 28.6158 89.6407 28.7743C89.2243 28.8865 88.8061 28.9952 88.3966 29.0978L87.6358 27.2612C87.9986 27.0436 88.3712 26.8249 88.7442 26.6101C89.2726 26.3059 89.5657 25.7204 89.4909 25.1184C89.4049 24.4271 89.4051 23.7255 89.4911 23.0333C89.5662 22.4307 89.2733 21.8447 88.7447 21.5404C88.3717 21.3256 87.9991 21.1068 87.6357 20.8889L88.3965 19.0523C88.8057 19.1549 89.2239 19.2636 89.6412 19.3759C90.2298 19.5345 90.8514 19.3272 91.2246 18.848C91.6531 18.2975 92.1492 17.8014 92.6987 17.3734C93.1774 17.0007 93.3842 16.3794 93.2256 15.7906C93.1138 15.3754 93.0051 14.9574 92.9021 14.5465L94.7388 13.7857C94.9556 14.1476 95.1745 14.5201 95.3898 14.8942C95.6941 15.4226 96.2802 15.7161 96.8816 15.6408C97.5725 15.5548 98.274 15.5548 98.9668 15.6411C99.5698 15.7162 100.155 15.423 100.46 14.8946C100.674 14.5217 100.893 14.149 101.111 13.7857L102.948 14.5465C102.845 14.9566 102.736 15.3749 102.624 15.7912C102.465 16.38 102.673 17.0016 103.152 17.3746C103.702 17.8031 104.198 18.2991 104.626 18.8487C104.999 19.3273 105.62 19.5341 106.209 19.3756C106.625 19.2635 107.043 19.1548 107.453 19.0521L108.214 20.8887C107.852 21.1059 107.479 21.3246 107.106 21.5398C106.577 21.844 106.284 22.4295 106.359 23.0315C106.445 23.7225 106.445 24.4242 106.359 25.1168C106.284 25.7194 106.577 26.3054 107.105 26.6096C107.477 26.824 107.85 27.0428 108.214 27.2609L107.453 29.0977Z" fill="#3D68C5"/>
<path d="M102.999 21.9733C102.999 21.9733 102.999 21.9733 102.999 21.9733C101.84 19.1756 98.6214 17.8423 95.8233 19.0011C93.0257 20.16 91.6923 23.3789 92.8512 26.1765C93.4125 27.5319 94.4682 28.5873 95.8234 29.1488C96.501 29.4294 97.213 29.5697 97.925 29.5697C98.6369 29.5697 99.3489 29.4294 100.027 29.1488C102.824 27.9899 104.158 24.7711 102.999 21.9733ZM99.41 27.66C98.4524 28.0566 97.3978 28.0565 96.44 27.66C95.4825 27.2634 94.7367 26.5175 94.34 25.5599C93.5211 23.5831 94.4633 21.3087 96.4401 20.4899C96.9242 20.2893 97.4259 20.1944 97.92 20.1944C99.4434 20.1944 100.892 21.0972 101.51 22.59C102.329 24.5667 101.387 26.8411 99.41 27.66Z" fill="#3D68C5"/>
<path d="M120.914 7.09705C120.636 7.05543 120.35 7.015 120.062 6.97661C119.917 6.49448 119.724 6.02704 119.485 5.58309C119.661 5.35281 119.834 5.12212 120.002 4.8955C120.374 4.39199 120.321 3.6779 119.877 3.23451L118.765 2.12315C118.322 1.67948 117.608 1.62569 117.104 1.99814C116.877 2.1664 116.646 2.33986 116.417 2.51529C115.973 2.27636 115.506 2.08272 115.023 1.93767C114.985 1.64995 114.944 1.36427 114.903 1.08619C114.81 0.467015 114.267 0 113.64 0H112.068C111.441 0 110.898 0.467015 110.805 1.08612C110.764 1.36406 110.723 1.64981 110.685 1.9376C110.203 2.08265 109.735 2.27629 109.291 2.51522C109.062 2.33972 108.831 2.16618 108.604 1.99807C108.1 1.62562 107.386 1.67941 106.943 2.12301L105.831 3.2343C105.388 3.67783 105.334 4.39199 105.706 4.89557C105.874 5.12212 106.047 5.35288 106.223 5.58309C105.985 6.02697 105.791 6.49434 105.646 6.97661C105.358 7.01507 105.072 7.05543 104.794 7.09705C104.175 7.18972 103.708 7.73261 103.708 8.36001V9.93184C103.708 10.5592 104.175 11.1021 104.794 11.1948C105.072 11.2364 105.358 11.2768 105.646 11.3152C105.791 11.7974 105.984 12.2648 106.223 12.7088C106.047 12.9388 105.874 13.1694 105.706 13.3963C105.334 13.8997 105.387 14.6139 105.831 15.0573L106.943 16.1688C107.386 16.6124 108.1 16.6662 108.604 16.2938C108.831 16.1257 109.062 15.9521 109.291 15.7767C109.735 16.0156 110.203 16.2093 110.685 16.3542C110.723 16.6419 110.764 16.9276 110.805 17.2058C110.898 17.825 111.441 18.292 112.068 18.292H113.64C114.267 18.292 114.81 17.8251 114.903 17.2057C114.944 16.9276 114.985 16.6419 115.023 16.3542C115.505 16.2093 115.973 16.0155 116.417 15.7766C116.646 15.9521 116.877 16.1256 117.104 16.2938C117.608 16.6662 118.322 16.6124 118.765 16.1688L119.877 15.0575C120.32 14.6139 120.374 13.8998 120.002 13.3963C119.834 13.1694 119.661 12.9387 119.485 12.7088C119.724 12.2649 119.917 11.7976 120.062 11.3153C120.35 11.2768 120.636 11.2365 120.914 11.1949C121.533 11.1022 122 10.5593 122 9.93191V8.36007C122 7.73268 121.533 7.18972 120.914 7.09705ZM120.469 9.7131C120.217 9.74973 119.959 9.78531 119.7 9.81899C119.189 9.88571 118.77 10.2487 118.634 10.7435C118.503 11.2174 118.314 11.6746 118.071 12.1025C117.817 12.5492 117.856 13.102 118.171 13.511C118.329 13.7172 118.487 13.9247 118.64 14.1297L117.838 14.9316C117.632 14.7781 117.425 14.6209 117.219 14.4627C116.81 14.1481 116.257 14.1092 115.81 14.3628C115.382 14.6059 114.925 14.7954 114.452 14.926C113.956 15.0624 113.594 15.481 113.527 15.9923C113.493 16.2508 113.458 16.5086 113.421 16.7611H112.287C112.25 16.5086 112.215 16.2509 112.181 15.9926C112.114 15.4811 111.751 15.0625 111.256 14.9261C110.783 14.7956 110.326 14.6061 109.898 14.3629C109.451 14.1091 108.898 14.1481 108.489 14.4627C108.283 14.621 108.076 14.7781 107.87 14.9316L107.068 14.1297C107.221 13.9245 107.379 13.7171 107.537 13.5107C107.852 13.1019 107.891 12.5491 107.637 12.1024C107.394 11.6745 107.204 11.2171 107.074 10.7435C106.938 10.2485 106.519 9.88557 106.008 9.81885C105.749 9.7851 105.491 9.74966 105.239 9.71289V8.57889C105.491 8.54225 105.749 8.50668 106.008 8.473C106.519 8.40627 106.938 8.04332 107.074 7.54846C107.204 7.07469 107.394 6.61745 107.637 6.18946C107.891 5.74277 107.852 5.1899 107.537 4.78103C107.378 4.5746 107.221 4.36717 107.068 4.16228L107.87 3.36037C108.076 3.51386 108.283 3.67108 108.489 3.82921C108.898 4.14386 109.45 4.1831 109.898 3.9292C110.325 3.68613 110.783 3.49664 111.256 3.366C111.751 3.22959 112.114 2.81095 112.181 2.29971C112.215 2.04117 112.25 1.78347 112.287 1.53091H113.421C113.458 1.7834 113.493 2.0411 113.527 2.2995C113.594 2.81095 113.957 3.22959 114.451 3.36593C114.925 3.4965 115.383 3.68606 115.81 3.92913C116.257 4.18303 116.81 4.14358 117.219 3.82928C117.425 3.67108 117.632 3.51386 117.838 3.36037L118.64 4.16228C118.487 4.36724 118.329 4.57474 118.171 4.78124C117.856 5.19004 117.817 5.74284 118.071 6.18953C118.314 6.61759 118.503 7.07491 118.634 7.54853C118.77 8.04353 119.189 8.40641 119.7 8.47314C119.959 8.50689 120.217 8.5424 120.469 8.5791V9.7131Z" fill="#3D68C5"/>
<path d="M112.854 5.8833C111.055 5.8833 109.591 7.34685 109.591 9.14587C109.591 10.945 111.055 12.4085 112.854 12.4085C114.653 12.4085 116.117 10.945 116.117 9.14587C116.117 7.34685 114.653 5.8833 112.854 5.8833ZM112.854 10.9582C111.855 10.9582 111.042 10.1451 111.042 9.1458C111.042 8.14645 111.855 7.33349 112.854 7.33349C113.853 7.33349 114.666 8.14652 114.666 9.1458C114.666 10.1451 113.853 10.9582 112.854 10.9582Z" fill="#3D68C5"/>
<path d="M203.621 18.8517C203.583 18.3162 203.123 17.9143 202.592 17.952C202.062 17.9906 201.664 18.456 201.702 18.9915C201.726 19.3223 201.737 19.6617 201.737 20C201.737 27.7505 195.499 34.0558 187.831 34.0558C180.162 34.0558 173.924 27.7504 173.924 20C173.924 12.2496 180.162 5.94428 187.831 5.94428C190.868 5.94428 193.752 6.9156 196.171 8.75313C196.596 9.07563 197.199 8.98914 197.518 8.55998C197.837 8.13074 197.752 7.52129 197.327 7.19879C194.571 5.10613 191.288 4 187.831 4C179.102 3.99993 172 11.1776 172 20C172 28.8224 179.102 36 187.831 36C196.56 36 203.661 28.8225 203.661 20C203.661 19.6153 203.647 19.2289 203.621 18.8517Z" fill="#3D68C5"/>
<path d="M206.903 6.19688C205.44 4.71823 203.059 4.71823 201.596 6.19688L187.737 20.2044L182.824 15.2387C181.361 13.7601 178.98 13.7601 177.517 15.2387C176.054 16.7175 176.054 19.1236 177.517 20.6023L185.978 29.1544C186.463 29.6444 187.1 29.8893 187.737 29.8893C188.374 29.8893 189.01 29.6444 189.495 29.1544L206.903 11.5603C208.366 10.0817 208.366 7.67568 206.903 6.19688ZM205.543 10.1856L188.135 27.7798C187.915 28.0015 187.558 28.0015 187.339 27.7798L178.877 19.2276C178.164 18.507 178.164 17.3345 178.877 16.6138C179.234 16.2533 179.702 16.0733 180.17 16.0733C180.639 16.0733 181.107 16.2534 181.463 16.6138L186.518 21.7221C186.843 22.0512 187.276 22.2324 187.737 22.2324C188.197 22.2324 188.631 22.0511 188.956 21.722L202.956 7.57171C203.669 6.85104 204.83 6.85104 205.543 7.57171C206.256 8.29239 206.256 9.46489 205.543 10.1856Z" fill="#3D68C5"/>
<path d="M52 17.4057H67.6957L64.0846 13.8404L64.9358 13L70 18L64.9358 23L64.0846 22.1596L67.6958 18.5942H52V17.4057Z" fill="#3D68C5"/>
<path d="M138 17.4057H153.696L150.085 13.8404L150.936 13L156 18L150.936 23L150.085 22.1596L153.696 18.5942H138V17.4057Z" fill="#3D68C5"/>
</svg>
