<svg width="21" height="16" viewBox="0 0 21 16" fill="none" xmlns="http://www.w3.org/2000/svg">
<path d="M16.9841 6.06433C17.2629 6.06433 17.4889 5.83831 17.4889 5.55951C17.4889 5.2807 17.2629 5.05469 16.9841 5.05469C16.7053 5.05469 16.4793 5.2807 16.4793 5.55951C16.4793 5.83831 16.7053 6.06433 16.9841 6.06433Z" fill="#333333"/>
<path d="M13.7421 6.06433C14.0209 6.06433 14.2469 5.83831 14.2469 5.55951C14.2469 5.2807 14.0209 5.05469 13.7421 5.05469C13.4633 5.05469 13.2373 5.2807 13.2373 5.55951C13.2373 5.83831 13.4633 6.06433 13.7421 6.06433Z" fill="#333333"/>
<path d="M10.5 6.06433C10.7788 6.06433 11.0048 5.83831 11.0048 5.55951C11.0048 5.2807 10.7788 5.05469 10.5 5.05469C10.2212 5.05469 9.99521 5.2807 9.99521 5.55951C9.99521 5.83831 10.2212 6.06433 10.5 6.06433Z" fill="#333333"/>
<path d="M7.25799 6.06433C7.5368 6.06433 7.76281 5.83831 7.76281 5.55951C7.76281 5.2807 7.5368 5.05469 7.25799 5.05469C6.97919 5.05469 6.75317 5.2807 6.75317 5.55951C6.75317 5.83831 6.97919 6.06433 7.25799 6.06433Z" fill="#333333"/>
<path d="M4.01593 6.06433C4.29473 6.06433 4.52075 5.83831 4.52075 5.55951C4.52075 5.2807 4.29473 5.05469 4.01593 5.05469C3.73712 5.05469 3.51111 5.2807 3.51111 5.55951C3.51111 5.83831 3.73712 6.06433 4.01593 6.06433Z" fill="#333333"/>
<path d="M16.9841 9.30651C17.2629 9.30651 17.4889 9.0805 17.4889 8.80169C17.4889 8.52289 17.2629 8.29688 16.9841 8.29688C16.7053 8.29688 16.4793 8.52289 16.4793 8.80169C16.4793 9.0805 16.7053 9.30651 16.9841 9.30651Z" fill="#333333"/>
<path d="M13.7421 9.30651C14.0209 9.30651 14.2469 9.0805 14.2469 8.80169C14.2469 8.52289 14.0209 8.29688 13.7421 8.29688C13.4633 8.29688 13.2373 8.52289 13.2373 8.80169C13.2373 9.0805 13.4633 9.30651 13.7421 9.30651Z" fill="#333333"/>
<path d="M10.5 9.30651C10.7788 9.30651 11.0048 9.0805 11.0048 8.80169C11.0048 8.52289 10.7788 8.29688 10.5 8.29688C10.2212 8.29688 9.99521 8.52289 9.99521 8.80169C9.99521 9.0805 10.2212 9.30651 10.5 9.30651Z" fill="#333333"/>
<path d="M4.01593 9.30651C4.29473 9.30651 4.52075 9.0805 4.52075 8.80169C4.52075 8.52289 4.29473 8.29688 4.01593 8.29688C3.73712 8.29688 3.51111 8.52289 3.51111 8.80169C3.51111 9.0805 3.73712 9.30651 4.01593 9.30651Z" fill="#333333"/>
<path d="M16.9841 12.5485C17.2629 12.5485 17.4889 12.3224 17.4889 12.0436C17.4889 11.7648 17.2629 11.5388 16.9841 11.5388C16.7053 11.5388 16.4793 11.7648 16.4793 12.0436C16.4793 12.3224 16.7053 12.5485 16.9841 12.5485Z" fill="#333333"/>
<path d="M13.7421 12.5485C14.0209 12.5485 14.2469 12.3224 14.2469 12.0436C14.2469 11.7648 14.0209 11.5388 13.7421 11.5388C13.4633 11.5388 13.2373 11.7648 13.2373 12.0436C13.2373 12.3224 13.4633 12.5485 13.7421 12.5485Z" fill="#333333"/>
<path d="M10.5 12.5485C10.7788 12.5485 11.0048 12.3224 11.0048 12.0436C11.0048 11.7648 10.7788 11.5388 10.5 11.5388C10.2212 11.5388 9.99521 11.7648 9.99521 12.0436C9.99521 12.3224 10.2212 12.5485 10.5 12.5485Z" fill="#333333"/>
<path d="M7.25799 12.5485C7.5368 12.5485 7.76281 12.3224 7.76281 12.0436C7.76281 11.7648 7.5368 11.5388 7.25799 11.5388C6.97919 11.5388 6.75317 11.7648 6.75317 12.0436C6.75317 12.3224 6.97919 12.5485 7.25799 12.5485Z" fill="#333333"/>
<path d="M4.01593 12.5485C4.29473 12.5485 4.52075 12.3224 4.52075 12.0436C4.52075 11.7648 4.29473 11.5388 4.01593 11.5388C3.73712 11.5388 3.51111 11.7648 3.51111 12.0436C3.51111 12.3224 3.73712 12.5485 4.01593 12.5485Z" fill="#333333"/>
<path d="M8.78144 6.84424H5.73439C5.4947 6.84424 5.30045 7.03849 5.30045 7.27818V10.3253C5.30045 10.565 5.4947 10.7592 5.73439 10.7592H8.78144C9.02113 10.7592 9.21538 10.565 9.21538 10.3253V7.27826C9.21538 7.03853 9.02109 6.84424 8.78144 6.84424ZM8.34749 9.89128H6.16833V7.71217H8.34745V9.89128H8.34749Z" fill="#333333"/>
<path d="M19.5535 1.03913H16.3662V0.482179C16.3662 0.215865 16.1503 0 15.884 0C15.6178 0 15.4018 0.215906 15.4018 0.482179V1.03913H12.7768V0.482179C12.7768 0.215865 12.5609 0 12.2946 0C12.0283 0 11.8124 0.215906 11.8124 0.482179V1.03913H9.18748V0.482179C9.18748 0.215865 8.97162 0 8.7053 0C8.43899 0 8.22313 0.215906 8.22313 0.482179V1.03913H5.59809V0.482179C5.59809 0.215865 5.38222 0 5.11591 0C4.8496 0 4.63373 0.215906 4.63373 0.482179V1.03913H1.44641C0.648907 1.03913 0 1.68799 0 2.48558V14.3216C0 15.1192 0.648907 15.7681 1.4465 15.7681H19.5535C20.3511 15.7681 21 15.1192 21 14.3216V2.48558C21 1.68799 20.351 1.03913 19.5535 1.03913ZM19.5535 14.8038H1.4465C1.18063 14.8038 0.964316 14.5875 0.964316 14.3216V2.48558C0.964316 2.21972 1.18063 2.0034 1.4465 2.0034H4.63377V2.56031C4.63377 2.82655 4.84964 3.04249 5.11595 3.04249C5.38227 3.04249 5.59813 2.82659 5.59813 2.56031V2.0034H8.22317V2.56031C8.22317 2.82655 8.43903 3.04249 8.70534 3.04249C8.97166 3.04249 9.18752 2.82659 9.18752 2.56031V2.0034H11.8125V2.56031C11.8125 2.82655 12.0283 3.04249 12.2947 3.04249C12.5609 3.04249 12.7768 2.82659 12.7768 2.56031V2.0034H15.4019V2.56031C15.4019 2.82655 15.6178 3.04249 15.8841 3.04249C16.1504 3.04249 16.3662 2.82659 16.3662 2.56031V2.0034H19.5535C19.8194 2.0034 20.0357 2.21972 20.0357 2.48558V14.3216H20.0357C20.0356 14.5875 19.8193 14.8038 19.5535 14.8038Z" fill="#333333"/>
</svg>
