<svg width="30" height="30" viewBox="0 0 30 30" fill="none" xmlns="http://www.w3.org/2000/svg">
<path d="M20.9945 9.2141C21.1213 9.34074 21.2218 9.49114 21.2905 9.65668C21.3591 9.82222 21.3944 9.99967 21.3944 10.1789C21.3944 10.3581 21.3591 10.5355 21.2905 10.7011C21.2218 10.8666 21.1213 11.017 20.9945 11.1436L16.9281 15.2086L20.5772 18.8564C20.8331 19.1122 20.9768 19.4593 20.9768 19.8211C20.9768 20.183 20.8331 20.53 20.5772 20.7859C20.3213 21.0418 19.9743 21.1855 19.6124 21.1855C19.2506 21.1855 18.9035 21.0418 18.6477 20.7859L14.9999 17.1368L11.3522 20.7859C11.0963 21.0418 10.7493 21.1855 10.3874 21.1855C10.0256 21.1855 9.67853 21.0418 9.42265 20.7859C9.16678 20.53 9.02303 20.183 9.02303 19.8211C9.02303 19.4593 9.16678 19.1122 9.42265 18.8564L13.0717 15.2086L9.00538 11.1436C8.87868 11.0169 8.7782 10.8664 8.70967 10.7007C8.64113 10.5351 8.60589 10.3576 8.60596 10.1784C8.60602 9.99915 8.64139 9.82168 8.71004 9.65611C8.77869 9.49054 8.87928 9.34011 9.00606 9.21342C9.13285 9.08672 9.28334 8.98624 9.44896 8.91771C9.61458 8.84917 9.79208 8.81393 9.97132 8.814C10.1506 8.81406 10.328 8.84943 10.4936 8.91808C10.6592 8.98673 10.8096 9.08731 10.9363 9.2141L14.9999 13.2818L19.0649 9.21546C19.1916 9.08868 19.342 8.9881 19.5075 8.91947C19.673 8.85085 19.8505 8.81553 20.0297 8.81553C20.2089 8.81553 20.3863 8.85085 20.5519 8.91947C20.7174 8.9881 20.8678 9.08868 20.9945 9.21546V9.2141Z" fill="#333333"/>
<path fill-rule="evenodd" clip-rule="evenodd" d="M4.09091 0C3.00593 0 1.96539 0.431005 1.1982 1.1982C0.431005 1.96539 0 3.00593 0 4.09091V25.9091C0 26.9941 0.431005 28.0346 1.1982 28.8018C1.96539 29.569 3.00593 30 4.09091 30H25.9091C26.9941 30 28.0346 29.569 28.8018 28.8018C29.569 28.0346 30 26.9941 30 25.9091V4.09091C30 3.00593 29.569 1.96539 28.8018 1.1982C28.0346 0.431005 26.9941 0 25.9091 0H4.09091ZM25.9091 2.72727H4.09091C3.72925 2.72727 3.3824 2.87094 3.12667 3.12667C2.87094 3.3824 2.72727 3.72925 2.72727 4.09091V25.9091C2.72727 26.2708 2.87094 26.6176 3.12667 26.8733C3.3824 27.1291 3.72925 27.2727 4.09091 27.2727H25.9091C26.2708 27.2727 26.6176 27.1291 26.8733 26.8733C27.1291 26.6176 27.2727 26.2708 27.2727 25.9091V4.09091C27.2727 3.72925 27.1291 3.3824 26.8733 3.12667C26.6176 2.87094 26.2708 2.72727 25.9091 2.72727Z" fill="#333333"/>
</svg>
