<svg width="134" height="134" viewBox="0 0 134 134" fill="none" xmlns="http://www.w3.org/2000/svg">
<path fill-rule="evenodd" clip-rule="evenodd" d="M30.249 0H20.7738L0 20.7738V30.249L30.249 0ZM0 51.019V41.5438L41.5438 0H51.019L0 51.019ZM0 71.789V62.3138L62.3138 0H71.789L0 71.789ZM0 92.559V83.0838L83.0838 0H92.559L0 92.559ZM0 113.329V103.854L103.854 0H113.329L0 113.329ZM0.0990033 134H0V124.624L124.624 0H134V0.0990059L0.0990033 134ZM20.869 134H11.3938L134 11.3938V20.869L20.869 134ZM41.639 134H32.1638L134 32.1638V41.639L41.639 134ZM62.409 134H52.9338L134 52.9338V62.409L62.409 134ZM83.179 134H73.7038L134 73.7038V83.179L83.179 134ZM103.949 134H94.4738L134 94.4738V103.949L103.949 134ZM124.719 134H115.244L134 115.244V124.719L124.719 134Z" fill="#3D68C5"/>
</svg>
