<svg width="63" height="63" viewBox="0 0 63 63" fill="none" xmlns="http://www.w3.org/2000/svg">
<path d="M40.4632 45.3713C39.8008 44.9733 39.121 44.5731 38.4412 44.1808C38.601 42.8187 38.6014 41.4408 38.4419 40.0814C39.1243 39.6877 39.8038 39.2878 40.4629 38.8914C41.5728 38.2245 42.0355 36.8174 41.5389 35.618C41.5389 35.618 41.5389 35.618 41.5387 35.6179L40.0904 32.1212C39.5936 30.9222 38.2721 30.2539 37.015 30.5671C36.268 30.753 35.5048 30.9508 34.7442 31.1548C33.8951 30.0803 32.9207 29.1062 31.8449 28.2565C32.0489 27.4958 32.2467 26.7322 32.4328 25.985C32.7459 24.7285 32.0778 23.4065 30.8788 22.9098L27.3821 21.4614C26.1831 20.9645 24.7756 21.4268 24.1084 22.5369C23.7111 23.1982 23.3109 23.878 22.9181 24.559C21.5563 24.3991 20.1787 24.3988 18.8187 24.5581C18.4247 23.8751 18.0246 23.1955 17.6288 22.5369C16.9614 21.4271 15.5542 20.9647 14.3552 21.4614L10.8584 22.9098C9.65969 23.4064 8.9913 24.7285 9.30446 25.985C9.49087 26.7337 9.68848 27.4971 9.89213 28.2558C8.81781 29.1047 7.84352 30.0793 6.99401 31.1551C6.23161 30.9505 5.46799 30.7529 4.7222 30.5671C3.4654 30.2537 2.14364 30.9224 1.6469 32.1213L0.19876 35.6179C-0.297733 36.817 0.164799 38.2243 1.27443 38.8912C1.93581 39.2886 2.61564 39.6888 3.29646 40.0817C3.13674 41.4433 3.13638 42.8209 3.29572 44.1811C2.61429 44.5742 1.93482 44.9743 1.27419 45.3712C0.164553 46.0382 -0.297979 47.4454 0.198637 48.6446L1.64714 52.1413C2.14376 53.3402 3.46516 54.0087 4.72245 53.6954C5.4686 53.5096 6.23198 53.312 6.99303 53.1078C7.84217 54.1821 8.81658 55.1561 9.89237 56.0059C9.68812 56.7674 9.49038 57.531 9.30446 58.2774C8.9913 59.5339 9.65945 60.856 10.8584 61.3526L14.3553 62.8011C14.6801 62.9356 15.0201 62.9998 15.3565 62.9998C16.2624 62.9998 17.1424 62.5348 17.6293 61.7257C18.0237 61.0695 18.4237 60.3899 18.8197 59.7038C20.1812 59.8634 21.5592 59.8636 22.9191 59.7045C23.3102 60.3828 23.7103 61.0622 24.1089 61.7258C24.7761 62.8357 26.1833 63.298 27.3826 62.8014L30.8793 61.353C32.078 60.8564 32.7464 59.5342 32.4333 58.2778C32.2483 57.5355 32.0507 56.7721 31.8456 56.007C32.9197 55.1581 33.8941 54.1836 34.7439 53.1078C35.504 53.3116 36.2677 53.5093 37.0153 53.6955C38.2717 54.0089 39.5939 53.3407 40.0906 52.1415L41.539 48.6446C42.0354 47.4455 41.5728 46.0382 40.4632 45.3713ZM37.5435 50.9208C36.8253 50.741 36.0932 50.5507 35.3652 50.3546C34.3346 50.0774 33.247 50.4397 32.5944 51.2783C31.8443 52.2418 30.9762 53.11 30.0143 53.859C29.1767 54.5113 28.8149 55.5986 29.0923 56.6286C29.2896 57.3612 29.4797 58.0929 29.6585 58.806L26.4442 60.1373C26.0619 59.4994 25.6791 58.8476 25.3049 58.1975C24.7725 57.2729 23.7478 56.7605 22.6944 56.8909C21.4847 57.0412 20.2568 57.0411 19.0456 56.8903C17.9892 56.7592 16.9653 57.2715 16.433 58.1964C16.0543 58.8539 15.6714 59.5061 15.2933 60.1372L12.079 58.8058C12.2588 58.0888 12.449 57.3568 12.6454 56.6278C12.9229 55.5972 12.5603 54.5095 11.7217 53.8567C10.7583 53.1068 9.89016 52.2388 9.14105 51.2771C8.4889 50.4392 7.40166 50.0775 6.37127 50.3548C5.64247 50.5511 4.91071 50.7413 4.19396 50.921L2.8626 47.7069C3.49752 47.3262 4.14954 46.9434 4.80243 46.5675C5.72712 46.035 6.23998 45.0106 6.10906 43.957C5.95857 42.7472 5.95894 41.5195 6.10943 40.3081C6.24084 39.2536 5.72835 38.228 4.80316 37.6954C4.15053 37.3196 3.49838 36.9367 2.86247 36.5554L4.19384 33.3413C4.90997 33.5208 5.64185 33.7111 6.37201 33.9076C7.40216 34.1852 8.48989 33.8224 9.14302 32.9838C9.89299 32.0204 10.7611 31.1522 11.7227 30.4033C12.5604 29.751 12.9223 28.6637 12.6448 27.6333C12.4492 26.9068 12.2589 26.1752 12.0787 25.4561L15.2929 24.1249C15.6724 24.7581 16.0553 25.41 16.4322 26.0647C16.9647 26.9894 17.9903 27.503 19.0427 27.3712C20.2519 27.2207 21.4796 27.2207 22.6919 27.3718C23.7471 27.5032 24.772 26.9901 25.3043 26.0654C25.68 25.4128 26.063 24.7606 26.444 24.1249L29.6582 25.4561C29.4783 26.1738 29.2881 26.9058 29.0918 27.6344C28.8144 28.6648 29.177 29.7525 30.0155 30.4053C30.9789 31.1553 31.8471 32.0232 32.5962 32.985C33.2483 33.8225 34.3352 34.1844 35.3661 33.9071C36.0944 33.7109 36.826 33.5207 37.5433 33.3409L38.8745 36.555C38.2405 36.9351 37.5886 37.3179 36.9347 37.6944C36.01 38.2269 35.497 39.2515 35.6281 40.305C35.7786 41.5142 35.7783 42.7421 35.6275 43.9542C35.4963 45.0088 36.009 46.0342 36.9338 46.5666C37.5855 46.9418 38.2376 47.3247 38.8745 47.7064L37.5435 50.9208Z" fill="white"/>
<path d="M29.748 38.4534C29.748 38.4534 29.748 38.4534 29.7479 38.4533C27.7201 33.5574 22.0875 31.2241 17.1909 33.252C12.2951 35.2801 9.96162 40.9131 11.9897 45.809C12.972 48.1809 14.8194 50.0279 17.191 51.0105C18.3768 51.5016 19.6228 51.7472 20.8687 51.7472C22.1147 51.7472 23.3607 51.5016 24.5467 51.0105C29.4425 48.9824 31.7758 43.3495 29.748 38.4534ZM23.4675 48.4051C21.7918 49.0992 19.9462 49.0991 18.2701 48.4051C16.5944 47.711 15.2893 46.4057 14.5951 44.7299C13.1619 41.2706 14.8108 37.2903 18.2702 35.8574C19.1174 35.5065 19.9955 35.3404 20.86 35.3404C23.526 35.3404 26.0606 36.9203 27.1427 39.5326C28.5756 42.9919 26.9268 46.9721 23.4675 48.4051Z" fill="white"/>
<path d="M61.0993 12.4198C60.6125 12.347 60.1125 12.2762 59.609 12.2091C59.3553 11.3653 59.0164 10.5473 58.5983 9.77039C58.9064 9.36742 59.2101 8.9637 59.5036 8.56712C60.1551 7.68598 60.0609 6.43632 59.2846 5.66039L57.3394 3.71552C56.5631 2.93909 55.3135 2.84496 54.4326 3.49674C54.0347 3.79119 53.6311 4.09475 53.2293 4.40175C52.4525 3.98363 51.6346 3.64476 50.7907 3.39092C50.7234 2.88741 50.6528 2.38747 50.58 1.90082C50.418 0.817276 49.4678 0 48.37 0H45.6191C44.5213 0 43.5711 0.817276 43.4091 1.9007C43.3364 2.3871 43.2657 2.88717 43.1984 3.3908C42.3545 3.64464 41.5364 3.98351 40.7598 4.40162C40.3583 4.0945 39.9544 3.79082 39.5566 3.49662C38.6755 2.84484 37.4258 2.93897 36.6498 3.71527L34.7049 5.66002C33.9285 6.4362 33.8341 7.68598 34.4859 8.56724C34.7791 8.9637 35.0828 9.36754 35.3908 9.77039C34.9729 10.5472 34.6339 11.3651 34.3801 12.2091C33.8767 12.2764 33.3766 12.347 32.89 12.4198C31.8063 12.582 30.989 13.5321 30.989 14.63V17.3807C30.989 18.4785 31.806 19.4287 32.8897 19.5909C33.3765 19.6637 33.8764 19.7345 34.3799 19.8016C34.6338 20.6455 34.9726 21.4634 35.3906 22.2403C35.0829 22.6429 34.7792 23.0465 34.4854 23.4436C33.834 24.3245 33.9281 25.5744 34.7044 26.3502L36.6495 28.2953C37.4257 29.0717 38.6754 29.1657 39.5564 28.5141C39.9543 28.2199 40.3579 27.9161 40.7595 27.6092C41.5366 28.0273 42.3546 28.3662 43.1983 28.6199C43.2654 29.1233 43.3361 29.6234 43.409 30.1101C43.5711 31.1937 44.5213 32.0109 45.6191 32.0109H48.37C49.4678 32.0109 50.418 31.1939 50.58 30.11C50.6527 29.6232 50.7234 29.1233 50.7907 28.6198C51.6345 28.3662 52.4524 28.0271 53.2293 27.609C53.6308 27.9161 54.0347 28.2198 54.4325 28.5141C55.3134 29.1659 56.5633 29.0717 57.3393 28.2954L59.2844 26.3506C60.0607 25.5744 60.155 24.3246 59.5032 23.4435C59.2096 23.0465 58.906 22.6427 58.5983 22.2404C59.0162 21.4636 59.3552 20.6459 59.609 19.8018C60.1124 19.7345 60.6125 19.6638 61.0991 19.591C62.1828 19.4288 63.0001 18.4788 63.0001 17.3808V14.6301C63 13.5322 62.1828 12.582 61.0993 12.4198ZM60.321 16.9979C59.879 17.062 59.428 17.1243 58.9756 17.1832C58.0807 17.3 57.3481 17.9352 57.1096 18.8012C56.8811 19.6304 56.5495 20.4305 56.1241 21.1794C55.6798 21.9611 55.7483 22.9285 56.2987 23.6443C56.5762 24.005 56.8514 24.3682 57.1193 24.727L55.7161 26.1303C55.3562 25.8617 54.9931 25.5866 54.633 25.3097C53.9176 24.7591 52.95 24.691 52.1682 25.1349C51.4192 25.5604 50.619 25.892 49.7903 26.1205C48.9238 26.3592 48.2886 27.0918 48.1722 27.9865C48.1133 28.4389 48.0512 28.89 47.9869 29.332H46.0022C45.9381 28.89 45.8759 28.439 45.8169 27.987C45.7001 27.0919 45.0651 26.3593 44.1988 26.1206C43.3698 25.8922 42.5699 25.5606 41.8207 25.1351C41.0388 24.6909 40.0712 24.7592 39.3559 25.3097C38.9958 25.5867 38.6329 25.8617 38.2728 26.1303L36.8695 24.727C37.1374 24.3678 37.4125 24.0049 37.6904 23.6438C38.2404 22.9283 38.3089 21.9609 37.8647 21.1792C37.4394 20.4303 37.1078 19.63 36.8793 18.801C36.6407 17.9348 35.9082 17.2997 35.0133 17.183C34.5608 17.1239 34.1097 17.0619 33.6677 16.9975V15.013C34.1097 14.9489 34.5607 14.8867 35.0131 14.8277C35.908 14.711 36.6407 14.0758 36.8791 13.2098C37.1076 12.3807 37.4391 11.5805 37.8646 10.8315C38.3089 10.0498 38.2404 9.08232 37.6903 8.3668C37.4123 8.00554 37.1372 7.64255 36.8695 7.28399L38.2728 5.88064C38.6327 6.14925 38.9957 6.42439 39.3556 6.70112C40.0707 7.25175 41.0382 7.32041 41.8207 6.87609C42.5694 6.45072 43.3697 6.11911 44.1986 5.89049C45.0651 5.65178 45.7002 4.91916 45.8166 4.02449C45.8757 3.57204 45.9379 3.12108 46.0021 2.67909H47.9868C48.0509 3.12095 48.113 3.57192 48.172 4.02412C48.2888 4.91916 48.9239 5.65178 49.79 5.89036C50.6191 6.11886 51.4194 6.4506 52.1683 6.87597C52.9503 7.32029 53.9178 7.25126 54.6329 6.70124C54.9931 6.42439 55.3559 6.14925 55.7161 5.88064L57.1193 7.28399C56.8517 7.64267 56.5766 8.00578 56.2986 8.36717C55.7485 9.08256 55.68 10.05 56.124 10.8317C56.5494 11.5808 56.881 12.3811 57.1095 13.2099C57.3481 14.0762 58.0806 14.7112 58.9755 14.828C59.4279 14.887 59.879 14.9492 60.321 15.0134V16.9979Z" fill="white"/>
<path d="M46.9945 10.2959C43.8464 10.2959 41.285 12.8571 41.285 16.0054C41.285 19.1538 43.8462 21.715 46.9945 21.715C50.1428 21.715 52.704 19.1538 52.704 16.0054C52.704 12.8571 50.1428 10.2959 46.9945 10.2959ZM46.9945 19.1769C45.2459 19.1769 43.823 17.7541 43.823 16.0053C43.823 14.2564 45.2458 12.8337 46.9945 12.8337C48.7433 12.8337 50.1659 14.2565 50.166 16.0053C50.166 17.7541 48.7433 19.1769 46.9945 19.1769Z" fill="white"/>
</svg>
