<svg width="24" height="24" viewBox="0 0 24 24" fill="none" xmlns="http://www.w3.org/2000/svg">
<path d="M23.0885 18.7763L18.3859 14.0737C17.8245 13.5123 16.9113 13.5123 16.3499 14.0737L15.127 15.2965C14.7438 15.6797 14.6227 16.2268 14.7626 16.7141L14.3013 17.1755C14.3011 17.1756 14.301 17.1757 14.3009 17.1759C13.9732 17.5039 11.9326 17.0005 9.46595 14.5338C6.99967 12.0676 6.49613 10.0273 6.82379 9.69904C6.82379 9.69895 6.82388 9.69895 6.82388 9.69895L7.2857 9.23718C7.41606 9.27464 7.55059 9.29376 7.68521 9.29376C8.05389 9.29376 8.42251 9.15347 8.70325 8.87282L9.92612 7.64995C10.4875 7.08862 10.4875 6.17535 9.92612 5.61398L5.22348 0.91128C4.9516 0.639404 4.59005 0.489685 4.20554 0.489685C3.82093 0.489685 3.45952 0.639498 3.1876 0.91128L1.96463 2.13425C1.58147 2.51741 1.46035 3.06453 1.60027 3.5518C1.60027 3.5518 1.20914 3.94668 1.18969 3.97161C-0.111235 5.41766 -0.355313 7.69434 0.507141 10.4163C1.35169 13.0815 3.17232 15.9048 5.63373 18.3661C8.09504 20.8274 10.9184 22.6481 13.5835 23.4927C14.6542 23.8319 15.6558 24 16.5653 24C18.0565 24 19.2998 23.5478 20.1911 22.6566L20.4477 22.4C20.5761 22.4369 20.7102 22.4569 20.8476 22.4569C21.2322 22.4569 21.5937 22.307 21.8655 22.0353L23.0885 20.8123C23.6498 20.251 23.6498 19.3376 23.0885 18.7763ZM4.20554 1.92922L8.90823 6.63196L7.68601 7.85549C7.68601 7.85549 7.68578 7.85526 7.68535 7.85484L7.66778 7.83726L5.33401 5.50349L2.98261 3.15219L4.20554 1.92922ZM19.1732 21.6386C19.1731 21.6387 19.173 21.6387 19.1729 21.6388C18.1373 22.6743 16.3067 22.8454 14.0185 22.1202C11.5692 21.3441 8.95295 19.6493 6.65181 17.3481C4.35057 15.0469 2.65575 12.4307 1.87964 9.98137C1.15449 7.69307 1.32553 5.86246 2.36128 4.82666L2.36138 4.82657L2.49122 4.69672L6.14077 8.34623L5.80604 8.68096C5.8058 8.6812 5.80562 8.68148 5.80534 8.68176C4.41854 10.0703 6.08485 13.1887 8.44806 15.5519C10.2168 17.3207 12.4087 18.6991 13.9817 18.6991C14.5106 18.6991 14.9696 18.5432 15.319 18.1938C15.3191 18.1937 15.3192 18.1936 15.3193 18.1935L15.6537 17.8591L19.3032 21.5086L19.1732 21.6386ZM20.8477 21.0173L16.145 16.3146L17.3679 15.0917L22.0706 19.7943C22.0706 19.7943 20.8481 21.0177 20.8477 21.0173Z" fill="#3D68C5"/>
<path d="M18.2257 5.77427C16.8565 4.40509 15.0362 3.65111 13.1002 3.65115C12.7026 3.65115 12.3804 3.97342 12.3804 4.37097C12.3804 4.76851 12.7027 5.09078 13.1002 5.09078C14.6517 5.09069 16.1105 5.695 17.2078 6.7922C18.3049 7.88936 18.9091 9.34807 18.909 10.8996C18.909 11.2971 19.2313 11.6195 19.6289 11.6195C20.0264 11.6195 20.3487 11.2972 20.3487 10.8998C20.3487 8.96365 19.5947 7.14344 18.2257 5.77427Z" fill="#3D68C5"/>
<path d="M20.8075 3.19252C18.7486 1.13372 16.0114 -9.37443e-05 13.0999 5.81338e-09C12.7024 5.81338e-09 12.3801 0.322313 12.3801 0.719813C12.3801 1.11736 12.7024 1.43963 13.0999 1.43963C15.6268 1.43953 18.0025 2.42363 19.7894 4.21046C21.5762 5.99724 22.5603 8.37292 22.5602 10.8998C22.5602 11.2974 22.8825 11.6196 23.28 11.6196C23.6775 11.6196 23.9998 11.2974 23.9998 10.8999C23.9999 7.9884 22.8661 5.25127 20.8075 3.19252Z" fill="#3D68C5"/>
<path d="M15.6439 8.35598C14.9545 7.66663 14.0752 7.30237 13.1006 7.30237C13.1006 7.30237 13.1004 7.30237 13.1003 7.30237C12.7028 7.30246 12.3805 7.62468 12.3806 8.02228C12.3807 8.41982 12.703 8.74209 13.1005 8.74199C13.1006 8.74199 13.1007 8.74199 13.1008 8.74199C13.6934 8.74199 14.2067 8.95462 14.626 9.37392C15.0394 9.78736 15.2579 10.3149 15.2579 10.8994C15.2578 11.297 15.5801 11.6192 15.9776 11.6193H15.9777C16.3752 11.6193 16.6974 11.2971 16.6975 10.8996C16.6975 9.92498 16.3333 9.04542 15.6439 8.35598Z" fill="#3D68C5"/>
</svg>
